<svg width="40" height="40" viewBox="0 0 40 40" fill="none" xmlns="http://www.w3.org/2000/svg">
<path fill-rule="evenodd" clip-rule="evenodd" d="M22.2977 32.5146V40L20 38.874L17.7023 40V32.5146C15.2108 31.6993 12.8724 30.6054 10.6871 29.2327L4.0901 40H3.87021L0 37.9119L6.97078 26.4905C3.12989 23.1195 1.20944 19.304 1.20944 15.044C1.20944 10.8679 2.46286 7.3543 4.9697 4.50314C7.03674 2.15514 9.51426 0.654087 12.4022 0H12.6221L17.6578 2.74214C13.6117 3.68134 10.6211 5.14046 8.68598 7.11949C6.42836 9.4675 5.29955 12.1174 5.29955 15.0692C5.29955 18.4402 6.40636 21.3584 8.62001 23.8239L11.3907 19.2704H11.6106L15.4808 21.3837L12.1164 26.8931C13.9579 28.2543 15.8198 29.2868 17.7023 29.9903L17.6578 2.74214V0L20 1.019L22.3422 0V2.74214L22.2977 29.9903C24.1802 29.2868 26.0421 28.2543 27.8836 26.8931L24.5192 21.3837L28.3894 19.2704H28.6093L31.3799 23.8239C33.5936 21.3584 34.7004 18.4402 34.7004 15.0692C34.7004 12.1174 33.5716 9.4675 31.314 7.11949C29.3789 5.14046 26.3882 3.68134 22.3422 2.74214L27.3778 0H27.5978C30.4858 0.654087 32.9633 2.15514 35.0303 4.50314C37.5371 7.3543 38.7906 10.8679 38.7906 15.044C38.7906 19.304 36.8701 23.1195 33.0292 26.4905L40 37.9119L36.1298 40H35.9099L29.3129 29.2327C27.1276 30.6054 24.7892 31.6993 22.2977 32.5146Z" fill="#FF5722"/>
</svg>
