<?xml version="1.0" standalone="no"?>
<!DOCTYPE svg PUBLIC "-//W3C//DTD SVG 20010904//EN"
 "http://www.w3.org/TR/2001/REC-SVG-20010904/DTD/svg10.dtd">
<svg version="1.0" xmlns="http://www.w3.org/2000/svg"
 width="512.000000pt" height="512.000000pt" viewBox="0 0 512.000000 512.000000"
 preserveAspectRatio="xMidYMid meet">
<metadata>
Created by potrace 1.14, written by Peter Selinger 2001-2017
</metadata>
<g transform="translate(0.000000,512.000000) scale(0.100000,-0.100000)"
fill="#000000" stroke="none">
<path d="M1515 5102 c-168 -46 -378 -143 -515 -237 -122 -84 -151 -108 -269
-225 -382 -378 -574 -860 -575 -1435 0 -274 53 -510 170 -753 44 -93 151 -272
194 -325 101 -125 187 -221 269 -301 112 -110 109 -94 46 -191 -37 -57 -325
-529 -371 -607 -17 -29 -123 -204 -236 -388 -113 -184 -210 -344 -216 -356
-10 -18 -5 -23 51 -52 62 -32 158 -83 338 -180 53 -29 102 -52 110 -52 8 0 82
111 164 247 83 136 162 265 176 287 56 88 344 560 348 570 2 6 15 25 28 42 12
17 23 34 23 37 0 7 53 93 98 160 22 33 27 36 41 24 95 -80 591 -315 826 -391
l51 -16 -1 -480 c0 -264 1 -480 2 -480 2 0 158 77 224 111 31 16 62 29 68 29
5 0 73 -31 151 -69 77 -38 140 -66 141 -63 1 4 2 218 3 476 l1 469 30 13 c17
7 75 29 130 50 55 20 116 43 135 51 19 8 44 19 55 23 91 39 314 151 420 213
82 48 132 71 135 64 3 -7 12 -23 21 -37 9 -14 185 -299 390 -635 204 -335 384
-629 398 -652 14 -23 32 -42 40 -43 12 0 93 41 281 143 30 16 89 48 130 70
108 58 105 51 63 115 -20 32 -44 71 -53 87 -9 17 -78 129 -152 250 -202 329
-453 741 -556 911 l-91 151 132 134 c207 209 314 355 422 574 99 201 151 380
172 590 11 116 4 413 -12 490 -3 11 -7 37 -10 58 -53 379 -249 768 -530 1053
-244 248 -555 427 -843 485 -57 11 -57 11 -127 -28 -38 -22 -104 -58 -145 -80
-41 -22 -150 -82 -242 -132 -92 -50 -172 -91 -178 -91 -6 0 -11 65 -12 169
l-3 169 -40 -18 c-22 -10 -88 -39 -147 -64 l-106 -46 -109 46 c-105 44 -169
73 -186 82 -4 2 -6 -855 -4 -1905 2 -1049 2 -1913 0 -1919 -10 -27 -354 144
-549 271 -135 88 -159 108 -151 130 4 8 50 86 104 173 176 286 314 515 311
517 -5 3 -94 53 -183 101 -44 23 -134 72 -199 107 -65 36 -124 63 -130 61 -6
-3 -90 -135 -186 -293 l-175 -289 -20 22 c-85 92 -179 233 -243 366 -47 95
-103 250 -117 318 -34 165 -40 233 -40 422 1 204 21 319 86 485 109 280 327
550 579 718 217 144 561 286 838 347 34 8 62 17 62 20 0 5 -68 43 -255 143
-49 27 -108 59 -130 72 -130 74 -255 135 -276 133 -13 -1 -46 -8 -74 -16z
m1475 -366 c530 -139 916 -368 1151 -684 87 -117 121 -172 167 -272 69 -148
95 -237 122 -410 9 -58 6 -384 -4 -435 -4 -16 -9 -41 -11 -55 -3 -14 -8 -38
-11 -55 -37 -215 -166 -484 -332 -687 l-54 -68 -99 163 c-54 89 -103 169 -108
177 -5 8 -40 66 -78 127 -48 80 -73 113 -87 113 -14 0 -481 -246 -505 -266 -2
-2 7 -21 21 -41 14 -21 111 -179 216 -352 l191 -314 -42 -30 c-107 -78 -285
-185 -417 -250 -137 -68 -169 -83 -231 -106 l-25 -9 3 1346 c1 741 2 1526 3
1745 0 375 1 398 18 393 9 -3 60 -17 112 -30z"/>
</g>
</svg>
